<svg xmlns="http://www.w3.org/2000/svg" viewBox="0 0 50 50">
  <path fill="#fff" d="M25.313 3c-6.102 0-12.82 2.313-14.22 9.813-.198.8.407 1.18.907 1.28l6.188.595c.601 0 1.019-.586 1.218-1.188.5-2.602 2.696-3.906 5.094-3.906 1.3 0 2.793.52 3.594 1.719.898 1.3.718 3.093.718 4.593v.906c-3.699.399-8.5.688-12 2.188-4 1.7-6.812 5.207-6.812 10.406 0 6.602 4.2 9.907 9.5 9.907 4.5 0 7-1.118 10.5-4.72 1.2 1.7 1.586 2.512 3.688 4.313.5.301 1.101.18 1.5-.218v.124c1.3-1.101 3.605-3.21 4.906-4.312.5-.3.398-1 0-1.5-1.2-1.602-2.407-2.906-2.407-5.906v-9.907c0-4.199.32-8.101-2.78-11C32.406 3.79 28.413 3 25.312 3zM27 22h1.688v1.406c0 2.399.105 4.489-1.094 6.688-1 1.8-2.606 2.906-4.407 2.906-2.398 0-3.875-1.793-3.875-4.594C19.313 23.707 23 22.301 27 22zm17.594 14.594c-1.602 0-3.508.406-4.907 1.406-.398.3-.374.688.126.688 1.601-.2 5.175-.68 5.874.218.602.801-.68 4.18-1.28 5.782-.2.5.195.613.593.312 2.7-2.3 3.406-6.992 2.906-7.594-.3-.5-1.71-.812-3.312-.812zM2.187 37.5c-.3 0-.492.512-.093.813C8.094 43.71 16.008 47 24.906 47c6.301 0 13.586-1.988 18.688-5.688.8-.601.113-1.617-.688-1.218-5.699 2.398-11.804 3.593-17.406 3.593-8.3 0-16.313-2.3-22.813-6-.199-.199-.398-.187-.5-.187z"/>
</svg>
