<svg xmlns="http://www.w3.org/2000/svg" width="1162.592" height="400">
  <path fill="#fff" d="M850.427 20.26v89.658h9.541c3.817-45.402 30.21-73.424 56.895-73.424l44.83.132V333.64c2.202 25.16-20.228 34.496-47.59 34.305l.104 9.438h177.673l-.044-9.526c-28.183-3.17-51.361-2.452-51.053-29.387l.088-301.843h41.57c26.702 0 59.759 22.973 59.759 73.292h10.392v-89.66H850.427zM718.302 73.28c-.147-13.681 10.436-29.55 28.99-29.55 32.03 0 38.048 33.733 30.078 50.32-13.49 28.11-32.793 35.039-33.365 33.923-10.922-18.055-25.512-37.945-25.703-54.694zm-49.776 207.295c-24.573-46.576-6.386-79.853 17.512-100.096 0 0 47.045 95.179 96.25 144.397-19.142 16.969-77.11 25.16-113.762-44.301zm-249.454-79.31h19.729c51.405-4.374 70.018 32.822 72.734 71.589 3.302 46.708-15.399 86.987-62.606 86.987-21.138 0-29.828-7.633-29.828-31.471l-.029-127.105zM591.946 315.04c14.561 29.725 50.994 73.938 111.589 74.936 33.35.543 64.367-8.367 101.182-43.215 13.122 11.48 31.735 30.62 60.168 32.264 8 .47 32.5-4.183 52.507-29.519 16.866-21.372 20.33-37.769 20.8-38.312l-8.763-6.561c-5.652 11.625-15.032 20.242-26.804 20.242-22.15 0-23.384-8.602-49.233-34.451 25.717-37.74 24.293-57.175 38.297-77.123 14.21-20.243 26.26-31.722 50.32-32.558V170.63h-88.867v8.998c17.762-1.336 20.595 12.668 18.305 24.367-4.639 23.81-29.52 72.411-32.807 68.918-37.74-39.927-84.243-126.885-84.243-126.885 33.909-18.598 47.59-57.439 47.59-67.288 0-33.703-17.718-62.063-67.26-68.36-30.106-3.831-86.987 21.329-88.073 73.835-.5 23.78 14.21 47.59 29.534 77.123-40.03 15.765-71.442 46.855-84.727 87.164-15.677-37.05-58.803-51.861-86.943-59.435h1.13c21.123-6.885 85.211-19.7 82.466-79.31-3.596-78.269-103.72-91.7-139.376-89.278H293.23v10.158c23.148 1.585 45.798-4.462 45.798 34.055l.088 267.612c0 32.293-17.497 32.675-45.68 35.845l-.133 9.233h162.04c87.546.867 124.346-24.073 136.603-62.34zM10 377.382h161.938c112.616-3.83 144.338-41.16 144.338-99.038 0-60.375-52.874-78.885-87.795-88.294 19.42-3.831 77.123-26.804 76.301-81.336-1.174-78.326-103.53-90.642-139.2-88.22H10.073v10.172c23.149 1.586 45.813-4.491 45.813 34.056l-.102 266.54c0 32.293-17.6 33.717-45.784 36.887v9.233zm125.769-176.66h19.714c45.52-1.13 71.912 24.616 74.92 71.104 3.04 47.076-16.146 86.415-64.806 86.973-21.123.25-29.828-7.633-29.828-31.457v-126.62zm23.12-161.175c49.996 3.376 63.177 46.547 63.207 62.444.102 47.868-14.929 84.507-85.975 82.334V39.547c.617 0 17.233-.367 22.767 0zm283.346.176c50.011 3.376 63.193 46.547 63.208 62.444.103 47.868-14.943 84.507-85.975 82.334V39.723c.617 0 17.233-.367 22.767 0"/>
</svg>
