<svg fill="white" viewBox="0 0 111.98 44.8" 
	xmlns="http://www.w3.org/2000/svg">
	<g transform="matrix(1.25 0 0 -1.25 -539.89 154.4)">
		<polygon points="509.36 106.29 515.63 96.55 509.14 96.55 506.13 101.86 502.32 96.55 495.77 96.55 503 106.31 497.46 114.58 504.08 114.58 506.21 110.76 508.68 114.58 515.32 114.58"/>
		<polygon points="489.42 114.58 494.84 114.58 494.84 114.58"/>
		<path d="m492.13 95.03c1.872 0 3.391-1.512 3.391-3.384s-1.52-3.391-3.391-3.391c-1.873 0-3.392 1.52-3.392 3.391-1e-3 1.872 1.52 3.384 3.392 3.384z"/>
		<path d="m482.72 103.73l5.513-7.184h-6.816l-3.44 5.384v-5.384h-5.408v18.032h7.088c2.104 0 3.808-0.592 4.927-1.712 1-1 1.505-2.352 1.505-4.032 0-2.48-1.305-4.4-3.369-5.104zm-1.472 4.832c0 0.608-0.159 1.056-0.48 1.384-0.64 0.64-1.872 0.728-2.791 0.736v-4.248c2.312 0.024 3.271 0.64 3.271 2.128z"/>
		<polygon points="471.1 114.58 471.1 109.87 466.99 109.87 466.99 96.55 461.6 96.55 461.6 109.87 457.49 109.87 457.49 114.58"/>
		<polygon points="456.04 114.58 456.04 96.55 450.63 96.55 450.63 99.022 450.63 112.09 450.63 114.58"/>
		<path d="m453.33 122.87c1.872 0 3.391-1.52 3.391-3.384 0-1.872-1.52-3.4-3.391-3.4-1.88 0-3.392 1.528-3.392 3.4-1e-3 1.864 1.511 3.384 3.392 3.384z"/>
		<path d="m448.98 112.09l-2.848-4.6c-0.8 1.328-2.377 2.184-3.968 2.184-2.273 0-3.936-1.848-3.936-4.12s1.663-4.113 3.936-4.113c1.591 0 3.168 0.856 3.968 2.184l2.848-4.608c-1.72-1.792-4.136-2.905-6.816-2.905-5.216 0-9.448 4.223-9.448 9.441 0 5.216 4.232 9.456 9.448 9.456 2.68 1e-3 5.096-1.119 6.816-2.919z"/>
	</g>
	<polygon points="78.659 11.169 78.659 33.709 71.9 33.709 71.9 30.62 71.9 14.28 71.9 11.169"/>
</svg>