<?xml version="1.0" encoding="utf-8"?>
<!-- Generator: Adobe Illustrator 23.0.1, SVG Export Plug-In . SVG Version: 6.00 Build 0)  -->
<svg version="1.1" id="Layer_1" xmlns="http://www.w3.org/2000/svg" xmlns:xlink="http://www.w3.org/1999/xlink" x="0px" y="0px"
	 viewBox="0 0 256 263" style="enable-background:new 0 0 256 263;" xml:space="preserve">
<style type="text/css">
	.st0{fill:#FFFFFF;}
</style>
<path class="st0" d="M233.8,93.4c-9.4-4-22.5-6.6-35.2-8.3c-7.9-19-17.5-35.6-27.8-48.3c-14.4-16.7-28.7-25.5-43.9-25.5
	S96.6,20,83.1,36.8c-10.4,12-19.9,29.5-27.9,48.6C42,87.3,28.9,90.2,20,94.2c-5.6,2.4-8.8,8.8-8.8,14.4c0,14.4,4,31.1,6.4,41.5
	c1.6,7.2,8,14.4,15.2,14.4c1.6,0,3.2,0,4.8-0.1v4.1H38c0.7,9.2,2.5,18.2,6,26.3c4.8,11.2,11.2,20.7,19.1,29.5
	c8,8.8,17.5,15.2,28.7,19.9c11.2,4.8,23.1,7.2,35.1,7.2c12.8,0,24.7-3.2,35.1-7.2c10.4-4.8,20.7-11.2,28.7-19.9
	c8.8-8.8,15.2-18.3,19.1-29.5c3.5-8.7,5.7-17.3,6.3-26.3h0.1v-0.8c0.1-1.1,0.1-2.2,0.1-3.3c1.5,0.1,3.1,0.1,4.7,0.1
	c7.2,0,13.6-7.2,15.2-14.4c2.4-10.4,5.6-28.7,6.4-43.1C242.6,101.4,239.4,95.8,233.8,93.4z M190,96.9c1.5,3.9,2.3,7.8,3.9,11.7
	c0.1,0,0.2,0,0.3-0.1c4,12.7,7,25.3,8.3,37c-17.6-1.4-33.2-5.2-46.9-11.4c-4.8-2.4-7.2-7.2-7.2-13.6c0.8-7.2,1.6-13.6,2.4-17.5
	c0.8-0.8,2.4-8,10.4-8C167.5,95,178.5,95.5,190,96.9z M202.4,107.8c-0.1-0.2-0.2-0.4-0.2-0.7c-0.9-3-1.8-6-2.7-9
	c6.6,1,13.1,2.4,18.5,4.1L202.4,107.8z M108.6,24.8c6.4-4,12-5.6,18.3-5.6c6.4,0,12,2.4,18.3,5.6c19.5,11.7,35.2,37.9,44.1,59.2
	c-13.9-1.4-26-1.8-30.5-1.8c-7.2,0-12,3.2-15.2,6.4c-5.6-2.4-11.2-4-16.7-4c-5.6,0-11.2,1.6-16.7,4c-4-4-8.8-6.4-15.2-6.4
	c-7.2,0-18.5,0.6-30.5,2C74.1,62.9,89,35.8,108.6,24.8z M52.5,106.3c-0.2,0.4-0.3,0.9-0.5,1.3l-15.6-5.6c5.7-1.7,12.2-2.9,18.6-3.9
	C54.1,100.9,53.3,103.6,52.5,106.3z M60.9,106.6c1.1-2.8,1.8-5.5,2.7-8.3c0.2-0.5,0.3-0.9,0.5-1.4C77.1,95.4,88.6,95,91.8,95
	c8.8,0,10.4,6.4,10.4,8c1.6,6.4,2.4,12,2.4,17.5c0,6.4-2.4,11.2-7.2,13.6c-13.4,6.1-28.1,9.8-45.4,11.3
	C53.9,133.7,56.7,120.2,60.9,106.6z M31.2,142.9c-1.5-5.4-3.3-12.7-4.4-20.4l20.8,2.5c-1.7,7.4-3,14.5-3.7,21
	c-2.9,0.1-5.8,0.2-8.8,0.2C33.6,146.1,32,144.5,31.2,142.9z M185.1,218.6c-7.2,8-16.7,14.4-26.3,18.3s-20.7,6.4-31.9,6.4
	c-11.2,0-21.5-1.6-31.9-6.4c-9.6-4-19.1-10.4-26.3-18.3c-7.2-8-12.8-16.7-16.7-27.1c-3-8.3-5-16.1-5.6-24.5v-3.5
	c13.2-1.5,25.5-5,37.5-8c8-2.4,15.2-8,20.7-10.4c14.4-6.4,15.2-19.9,13.6-31.9c0-3.2,0.8-7.2,4-9.6c0.8-0.8,3.2-1.6,4.8-1.6
	c1.6,0,3.2,0.8,4.8,1.6c3.2,2.4,4,6.4,4,9.6c-0.8,12,0,26.3,13.6,32.7v0.8c5.6,2.4,12.8,6.4,20.7,8.8c11.9,3,24.2,6.4,37.4,7.9
	c-0.4,9.9-2.1,19.2-5.4,28C198.7,201.9,192.3,210.7,185.1,218.6z M217.8,146.1c-2.5,0-4.9-0.1-7.3-0.1c-0.7-6.5-2-13.6-3.7-21
	l19.4-2.3c-1.1,7.7-2.9,14.9-4.4,20.3C221,144.5,219.4,146.1,217.8,146.1z"/>
</svg>
