<svg xmlns="http://www.w3.org/2000/svg" viewBox="0 0 48 48">
  <path fill="#e0e0e0" d="M5.5 40.5h37c1.934 0 2.5-1.566 2.5-3.5V11c0-1.934-.566-3.5-2.5-3.5h-37A3.5 3.5 0 0 0 2 11v26a3.5 3.5 0 0 0 3.5 3.5z"/>
  <path fill="#d9d9d9" d="M26 40.5h16.5c1.934 0 2.5-1.566 2.5-3.5V11c0-1.934-.566-3.5-2.5-3.5h-37A3.5 3.5 0 0 0 2 11z"/>
  <path fill="#eee" d="M6.746 40.5H42.5c1.934 0 2.5-1.566 2.5-3.5V11.5z"/>
  <path fill="#e0e0e0" d="M25.746 40.5H42.5c1.934 0 2.5-1.566 2.5-3.5V11.5L18.77 31.617z"/>
  <path fill="#ca3737" d="M42.5 9.5h-37C3.566 9.5 2 9.066 2 11v26a3.5 3.5 0 0 0 3.5 3.5H7V12h34v28.5h1.5A3.5 3.5 0 0 0 46 37V11c0-1.934-1.566-1.5-3.5-1.5z"/>
  <path fill="#f5f5f5" d="M42.5 7.5h-37A3.48 3.48 0 0 0 2 11c0 1.207 1.52 2.258 1.52 2.258L24 27.758l20.48-14.5S46 12.207 46 11a3.48 3.48 0 0 0-3.5-3.5z"/>
  <path fill="#e84f4b" d="M43.246 7.582L24 21 4.754 7.582A3.472 3.472 0 0 0 2 11c0 1.207 1.52 2.258 1.52 2.258L24 27.758l20.48-14.5S46 12.207 46 11a3.472 3.472 0 0 0-2.754-3.418z"/>
</svg>
