<?xml version="1.0" encoding="UTF-8"?>
<svg
  version="1.1"
  viewBox="0 0 1000 460.9"
  xml:space="preserve"
  xmlns="http://www.w3.org/2000/svg"
  xmlns:cc="http://creativecommons.org/ns#"
  xmlns:dc="http://purl.org/dc/elements/1.1/"
  xmlns:rdf="http://www.w3.org/1999/02/22-rdf-syntax-ns#"
  fill="#fff"
>
  <path
    d="m164.19 82.432c-39.865 0-65.541 11.486-87.162 38.514v-29.73h-77.027v366.22s1.3514 0.67567 5.4054 1.3514c5.4054 1.3514 33.784 7.4324 54.73-10.135 18.243-15.541 22.297-33.784 22.297-54.054v-52.703c22.297 23.649 47.297 33.784 82.432 33.784 75.676 0 133.78-61.486 133.78-143.24 0-88.514-56.081-150-134.46-150zm-14.865 223.65c-42.568 0-76.351-35.135-76.351-77.703 0-41.892 39.865-75.676 76.351-75.676 43.243 0 76.351 33.108 76.351 76.351 0 43.243-33.784 77.027-76.351 77.027z"
    stroke-width="6.7568"
  />
  <path
    d="m408.11 223.65c0 31.757 3.3784 70.27 34.459 112.16 0.67567 0.67567 2.027 2.7027 2.027 2.7027-12.838 21.622-28.378 36.486-49.324 36.486-16.216 0-32.432-8.7838-45.946-23.649-14.189-16.216-20.946-37.162-20.946-59.459v-291.89h79.054z"
    stroke-width="6.7568"
  />
  <polygon
    transform="scale(6.7568)"
    points="117.9 33.9 104.1 13.5 118.3 13.5 132 33.9 118.3 54.2 104.1 54.2"
  />
  <polygon
    transform="scale(6.7568)"
    points="135.7 31.6 148 13.5 133.8 13.5 128.7 21"
  />
  <path
    d="m869.59 316.22s16.216 22.297 16.216 22.297c15.541 24.324 35.811 36.486 59.459 36.486 25-0.67567 42.568-22.297 49.324-30.405 0 0-12.162-10.811-27.703-29.054-20.946-24.324-48.649-68.919-49.324-70.946z"
    stroke-width="6.7568"
  />
  <path
    d="m632.43 287.16c-16.216 14.865-27.027 22.973-49.324 22.973-39.865 0-62.838-28.378-66.216-59.459h211.49c1.3513-4.0541 2.027-9.4595 2.027-18.243 0-85.811-62.838-150-145.27-150-78.378 0-142.57 65.541-142.57 147.3 0 81.081 64.189 145.27 144.59 145.27 56.081 0 104.73-31.757 131.08-87.838zm-46.622-139.86c35.135 0 61.486 22.973 67.568 53.378h-133.78c6.7568-31.757 31.757-53.378 66.216-53.378z"
    stroke-width="6.7568"
  />
</svg>
